<?xml version="1.0" encoding="UTF-8"?>
<svg xmlns="http://www.w3.org/2000/svg" xmlns:xlink="http://www.w3.org/1999/xlink" width="512" height="512" x="0" y="0" viewBox="0 0 128 128" style="enable-background:new 0 0 512 512" xml:space="preserve" class="hovered-paths">
  <g>
    <path d="M119.964 102.531c-6.749-7.292-14.126-15.278-17.659-19.227-3.4-3.812-9.073-12.4-15.636-22.353C81.24 52.723 75.086 43.4 69.315 35.47 61.859 25.229 51.35 15.089 43.847 8.387a14.342 14.342 0 0 0-19.6.488L5.271 27.615a1.75 1.75 0 0 0-.071 2.414l2.232 2.491a4.728 4.728 0 0 0 6.584.471l13.21-11.053c.309.24.622.493.934.744L15.324 34.187a4.748 4.748 0 1 0 6.323 7.086l13.629-12.205q.744.729 1.488 1.484L23.053 42.836a4.752 4.752 0 0 0 2.914 8.284c.087.005.175.007.262.007a4.7 4.7 0 0 0 3.159-1.213l13.846-12.4q.694.789 1.383 1.587L30.783 51.484a4.748 4.748 0 0 0-.358 6.7 4.718 4.718 0 0 0 3.284 1.575c.087 0 .173.007.26.007a4.689 4.689 0 0 0 3.158-1.214l13.542-12.126q.659.834 1.3 1.663L38.523 60.124a4.748 4.748 0 0 0-.357 6.7 4.715 4.715 0 0 0 3.283 1.576c.087 0 .173.007.259.007a4.692 4.692 0 0 0 3.159-1.214l12.788-11.441c.415.586.822 1.167 1.215 1.736l-12.6 11.278a4.752 4.752 0 0 0 6.344 7.077l11.445-10.254c.383.664.736 1.3 1.045 1.884L54.017 77.4a4.75 4.75 0 0 0-.369 6.708l2.638 2.946a1.755 1.755 0 0 0 1.956.456l8.2-3.288a10.88 10.88 0 0 1 11.976 2.7l4.38 4.75a104.266 104.266 0 0 1 16.915 24.654 12.31 12.31 0 0 0 8.561 6.649 12.6 12.6 0 0 0 2.61.275 12.391 12.391 0 0 0 12.348-11.586 12.2 12.2 0 0 0-3.268-9.133zM19.313 38.666a1.245 1.245 0 0 1-2.083-.936 1.219 1.219 0 0 1 .418-.927l13.216-11.846c.622.546 1.246 1.1 1.874 1.685zm7.735 8.645a1.183 1.183 0 0 1-.893.314 1.251 1.251 0 0 1-.767-2.182l13.806-12.368q.853.9 1.7 1.83zm7.739 8.64a1.24 1.24 0 0 1-1.744-.088 1.247 1.247 0 0 1 .084-1.779l13.757-12.319q.8.963 1.59 1.929zm7.74 8.64a1.25 1.25 0 0 1-2.077-.931 1.275 1.275 0 0 1 .417-.936L54.1 50.88c.509.677 1.011 1.351 1.5 2.016zm7.762 8.639a1.248 1.248 0 0 1-1.775-.1 1.235 1.235 0 0 1 .093-1.759l12.239-10.953c.482.732.936 1.439 1.368 2.125zm69.445 38.22a8.754 8.754 0 0 1-3.148 6.218 8.931 8.931 0 0 1-13.736-2.882A107.764 107.764 0 0 0 85.367 89.3l-4.38-4.75a14.407 14.407 0 0 0-15.849-3.578l-7.062 2.838-1.821-2.034a1.249 1.249 0 0 1 .1-1.764L68.44 69.184a1.751 1.751 0 0 0 .408-2.065C63.99 57.061 44.382 30.22 28.208 18.3a1.745 1.745 0 0 0-2.161.066L11.77 30.308a1.247 1.247 0 0 1-1.733-.125l-1.12-1.249 17.791-17.567A10.836 10.836 0 0 1 41.514 11c7.377 6.59 17.7 16.543 24.971 26.535 5.724 7.861 11.854 17.152 17.263 25.349C90.387 72.942 96.121 81.633 99.7 85.637c3.552 3.969 10.94 11.969 17.7 19.271a8.725 8.725 0 0 1 2.334 6.542z" opacity="1" data-original="#000000" class="hovered-path"></path>
    <path d="M106.228 96.5a1.751 1.751 0 1 0-2.576 2.371l3.213 3.483a1.75 1.75 0 0 0 2.572-2.375z" opacity="1" data-original="#000000" class="hovered-path"></path>
  </g>
</svg>
