<?xml version="1.0" encoding="UTF-8"?>
<svg xmlns="http://www.w3.org/2000/svg" xmlns:xlink="http://www.w3.org/1999/xlink" width="512" height="512" x="0" y="0" viewBox="0 0 436.833 436.833" style="enable-background:new 0 0 512 512" xml:space="preserve" class="">
  <g>
    <path d="M302.47 371.393a8.002 8.002 0 0 0-11.16 1.88 8.002 8.002 0 0 0 1.88 11.16c3.92 2.88 4.88 4.88 4.96 5.28a5.129 5.129 0 0 1-1.68 1.68 9.36 9.36 0 0 1-2.48 0c-6.08 0-12.08-8-18.56-16a145.643 145.643 0 0 0-10.56-12.56 27.52 27.52 0 0 0-20.08-8.56 39.126 39.126 0 0 0-17.84 4.8 39.126 39.126 0 0 0-17.84-4.8 27.52 27.52 0 0 0-20.08 8.56 144.617 144.617 0 0 0-10.4 12.88c-6.4 8-12.48 16-18.56 16a9.276 9.276 0 0 1-2.48 0 5.915 5.915 0 0 1-1.68-1.6c0-.48 1.04-2.48 4.96-5.36a8.002 8.002 0 0 0 1.88-11.16 8.002 8.002 0 0 0-11.16-1.88c-1.84 1.28-18.32 12.96-17.6 29.6.4 10.56 7.44 19.84 20.96 27.52a55.997 55.997 0 0 0 27.76 8 69.36 69.36 0 0 0 44.32-18.8 69.436 69.436 0 0 0 44.32 18.64 55.997 55.997 0 0 0 27.76-8c13.52-8 20.56-16.96 20.96-27.52.72-16.8-15.68-28.48-17.6-29.76zm-11.2 43.28a40 40 0 0 1-19.84 5.52c-21.52 0-38.16-18.88-38.24-19.04a8.643 8.643 0 0 0-6.08-2.8 8 8 0 0 0-6.08 2.8s-16.72 19.04-38.32 19.04a40 40 0 0 1-20.08-5.52 36.732 36.732 0 0 1-10.24-8 25.664 25.664 0 0 0 7.44 1.12c13.92 0 22.64-11.36 31.2-22.32 2.914-3.9 6.039-7.639 9.36-11.2a11.36 11.36 0 0 1 8.64-3.76 26.081 26.081 0 0 1 13.12 4.56 7.999 7.999 0 0 0 9.52 0 26.243 26.243 0 0 1 13.04-4.56 11.358 11.358 0 0 1 8.64 3.76 132.762 132.762 0 0 1 9.36 11.2c8.48 10.96 17.28 22.32 31.2 22.32a26.019 26.019 0 0 0 7.44-1.12 36.731 36.731 0 0 1-10.08 8zM394.95 84.513a8.001 8.001 0 0 0-6.64-6.88 8 8 0 0 0-8 4.96c-8 19.04-18.64 24.48-27.12 25.36 18.8-59.76-22.08-92.48-40-103.36a76.078 76.078 0 0 0-7.28-4.08h-.8a8 8 0 0 0-2.16-.48h-1.28a7.023 7.023 0 0 0-1.36 0H299.11l-.48 1.04a8.025 8.025 0 0 0-1.52 1.28l-.8 1.04a7.297 7.297 0 0 0-.88 1.84 7.117 7.117 0 0 0 0 .8c-7.44 32-35.68 47.12-88.96 47.12-12.48 0-24-.8-34.88-1.44-8-.48-14.8-.96-20.32-.96-33.68 0-50 32.56-54.72 44-28.32 9.6-45.92 26.32-53.92 49.52-20.08 61.44 41.28 146.16 43.92 149.76a7.993 7.993 0 0 0 2.48 2.08h.72a7.998 7.998 0 0 0 3.2.72 8.002 8.002 0 0 0 2.88-.56 7.543 7.543 0 0 0 1.68-1.2h.56a7.988 7.988 0 0 0 1.68-2.4v-.8a7.998 7.998 0 0 0 .48-2c-.005-.827-.005-1.653 0-2.48-5.28-21.04 15.28-67.92 24-88 1.76-4.08 3.2-7.36 4.16-9.76a94.25 94.25 0 0 0 5.12-28.08 148.797 148.797 0 0 0 98.56 33.04h32.4c32.8 0 54.88 50.96 55.12 51.44a8 8 0 0 0 11.76 3.6c88-57.2 64-164.08 63.6-165.12zm-94.16-11.92v-.08a57.672 57.672 0 0 0 9.68-16 85.046 85.046 0 0 1-8 40.96 69.918 69.918 0 0 1-46.96 34.72 149.84 149.84 0 0 1-131.12-26.16c13.2 1.28 31.44 2.64 51.52 2.64 45.28-.16 99.76-6.96 124.88-36.08zm-149.92-5.92v-.08c4.96 0 11.6.4 19.28.96 10.72.72 22.96 1.52 35.92 1.52 18.56 0 68.32 0 92.88-33.44a42.158 42.158 0 0 1-10.24 26.48c-33.68 39.04-137.2 30.8-171.6 26.8a41.52 41.52 0 0 1 33.76-22.24zm-93.04 82.56a56.88 56.88 0 0 1 28-32.56 234.083 234.083 0 0 0-15.04 117.36c-12.16-26.32-21.44-58.72-12.96-84.8zm272.8 81.12c-9.04-16.96-32-52.32-65.6-52.32h-16c-34 1.04-72.56 2.16-117.76-40a8 8 0 0 0-13.44 6.32c.865 13.124-.515 26.3-4.08 38.96-.88 2.24-2.24 5.36-4 9.28a441.54 441.54 0 0 0-20.88 54.96 221.204 221.204 0 0 1 16.96-136.16 171.522 171.522 0 0 0 110.4 42.64 165.58 165.58 0 0 0 43.44-5.92 85.2 85.2 0 0 0 57.04-42.96 114.883 114.883 0 0 0 7.44-71.52c14.08 15.36 26.08 40.8 10.72 78.4a8 8 0 0 0 4.8 10.56 36.147 36.147 0 0 0 10.96 1.6 42.48 42.48 0 0 0 32-14.96c1.84 29.92-2.8 84.4-52 121.12z" opacity="1" data-original="#000000" class=""></path>
  </g>
</svg>
