<svg xmlns="http://www.w3.org/2000/svg" xmlns:xlink="http://www.w3.org/1999/xlink" width="512" height="512" x="0" y="0" viewBox="0 0 58 58" style="enable-background:new 0 0 512 512" xml:space="preserve" class=""><g><path d="M47.08 8.747 12.985 6.022c-3.46-.272-6.717.82-9.173 3.088C1.354 11.379 0 14.543 0 18.019c0 3.477 1.354 6.641 3.811 8.91 1.733 1.6 3.868 2.606 6.189 2.969v15.625c0 3.582 2.243 6.496 5 6.496s5-2.914 5-6.496V29.515c0-.021-.011-.038-.012-.059L47.08 27.29a1 1 0 0 0 .92-.997V9.745a1 1 0 0 0-.92-.998zM18 45.523c0 2.438-1.374 4.496-3 4.496s-3-2.059-3-4.496V30.056c.326-.002.655-.014.985-.04L18 29.615v15.908zm28-20.152-33.174 2.651c-2.898.228-5.618-.679-7.659-2.563C3.125 23.574 2 20.931 2 18.019c0-2.911 1.125-5.553 3.168-7.439 1.833-1.692 4.212-2.599 6.776-2.599.292 0 .586.012.882.035L46 10.667v14.704zM52 13.019h4a1 1 0 1 0 0-2h-4a1 1 0 1 0 0 2zM57 17.019h-4a1 1 0 1 0 0 2h4a1 1 0 1 0 0-2zM55 23.019h-4a1 1 0 1 0 0 2h4a1 1 0 1 0 0-2z" opacity="1" data-original="#000000"></path><path d="M14 32.019h2v5h-2z" opacity="1" data-original="#000000"></path></g></svg>