<?xml version="1.0" encoding="UTF-8"?>
<svg xmlns="http://www.w3.org/2000/svg" xmlns:xlink="http://www.w3.org/1999/xlink" width="512" height="512" x="0" y="0" viewBox="0 0 512 512" style="enable-background:new 0 0 512 512" xml:space="preserve" class="">
  <g>
    <path d="M371.189 21H140.811A5.776 5.776 0 0 0 135 26.923v74.109a5.814 5.814 0 0 0 5.811 5.968h37.066a38.759 38.759 0 0 0 38.531 33H224v318.682a32 32 0 1 0 64 0V140h7.592a38.759 38.759 0 0 0 38.531-33h37.066a5.814 5.814 0 0 0 5.811-5.968V26.923A5.776 5.776 0 0 0 371.189 21zM236 186h40v46h-40zm20 293.077a20.085 20.085 0 0 1-20-20.395V244h40v214.682a20.085 20.085 0 0 1-20 20.395zM276 174h-40v-34h40zm19.592-46h-79.184a27.045 27.045 0 0 1-26.308-21h131.8a27.045 27.045 0 0 1-26.308 21zM365 95H147V33h218z" opacity="1" data-original="#000000"></path>
    <path d="M167.543 60h177.963a6 6 0 0 0 0-12H167.543a6 6 0 0 0 0 12zM167.543 80h177.963a6 6 0 0 0 0-12H167.543a6 6 0 0 0 0 12z" opacity="1" data-original="#000000"></path>
  </g>
</svg>
