<svg xmlns="http://www.w3.org/2000/svg" xmlns:xlink="http://www.w3.org/1999/xlink" width="512" height="512" x="0" y="0" viewBox="0 0 64 64" style="enable-background:new 0 0 512 512" xml:space="preserve" class=""><g><path d="M61.168 7.445A5.724 5.724 0 0 1 56.395 10h-.419c.009-.16.024-.32.024-.481A3.522 3.522 0 0 0 52.482 6a3.522 3.522 0 0 0-3.076 1.81c-.171.309-.361.608-.536.915l-4.777-1.061a27.982 27.982 0 0 0-10.286-.339A144.283 144.283 0 0 1 11.912 9H2a1 1 0 0 0-1 1v3a1 1 0 0 0 1 1v3c0 1.654 1.346 3 3 3h4.658c8.519 0 17.046-.937 25.37-2.767.055.23.191.437.387.579a1.004 1.004 0 0 0 .901.136l1.633-.544A2.995 2.995 0 0 0 40 14.559v-2.546c2.166.055 4.332.294 6.458.704a96.086 96.086 0 0 1-6.833 9.451 129.953 129.953 0 0 1-18.521 18.365l-9.048 7.325A5.526 5.526 0 0 0 10 52.168v.288A5.55 5.55 0 0 0 15.544 58a5.51 5.51 0 0 0 3.222-1.033l4.59-3.278A90.997 90.997 0 0 0 38.463 40.11a90.757 90.757 0 0 0 15.126-23.475l1.723-3.875a7.97 7.97 0 0 0 .291-.76h.791a7.724 7.724 0 0 0 6.438-3.445zM5 18c-.551 0-1-.448-1-1v-3h9.909C20.935 14 28 13.396 35 12.192v3A116.299 116.299 0 0 1 9.658 18zm42.119-7.196A41.533 41.533 0 0 0 39 10a1 1 0 0 0-1 1v3.559a1 1 0 0 1-.684.949l-.316.104V11c0-.297-.176-.57-.403-.76a1.085 1.085 0 0 0-.863-.208A122.32 122.32 0 0 1 13.909 12H3v-1h8.912c7.411 0 14.88-.571 22.211-1.699a25.975 25.975 0 0 1 9.537.315l4.148.922c-.072.12-.139.242-.212.362zm6.366 1.144-1.723 3.874a88.786 88.786 0 0 1-14.794 22.959 89.026 89.026 0 0 1-14.774 13.28l-4.59 3.278A3.547 3.547 0 0 1 12 52.456v-.288c0-1.074.479-2.078 1.314-2.755l9.048-7.325A132.012 132.012 0 0 0 41.168 23.44a97.96 97.96 0 0 0 9.985-14.658A1.52 1.52 0 0 1 54 9.519a5.95 5.95 0 0 1-.515 2.429z" opacity="1" data-original="#000000"></path><path d="M51 10h2v2h-2zM16 49c-1.654 0-3 1.346-3 3s1.346 3 3 3 3-1.346 3-3-1.346-3-3-3zm0 4a1.001 1.001 0 0 1 0-2 1.001 1.001 0 0 1 0 2z" opacity="1" data-original="#000000"></path></g></svg>