<svg xmlns="http://www.w3.org/2000/svg" xmlns:xlink="http://www.w3.org/1999/xlink" width="512" height="512" x="0" y="0" viewBox="0 0 64 64" style="enable-background:new 0 0 512 512" xml:space="preserve" class=""><g><path d="M37.75 32a5.76 5.76 0 0 0-4-5.477V20.75H35a1.75 1.75 0 0 0 0-3.5h-1.25v-5.5H35a1.75 1.75 0 0 0 0-3.5h-6a1.75 1.75 0 0 0 0 3.5h1.25v5.5H29a1.75 1.75 0 0 0 0 3.5h1.25v5.773a5.75 5.75 0 0 0 0 10.954v5.773H29a1.75 1.75 0 0 0 0 3.5h1.25v5.5H29a1.75 1.75 0 0 0 0 3.5h6a1.75 1.75 0 0 0 0-3.5h-1.25v-5.5H35a1.75 1.75 0 0 0 0-3.5h-1.25v-5.773a5.76 5.76 0 0 0 4-5.477ZM32 29.75A2.25 2.25 0 1 1 29.75 32 2.253 2.253 0 0 1 32 29.75Z" opacity="1" data-original="#000000"></path><path d="M51 6.25h-5.25V2A1.75 1.75 0 0 0 44 .25H20A1.75 1.75 0 0 0 18.25 2v4.25H13A1.75 1.75 0 0 0 11.25 8v48A1.75 1.75 0 0 0 13 57.75h5.25V62A1.75 1.75 0 0 0 20 63.75h24A1.75 1.75 0 0 0 45.75 62v-4.25H51A1.75 1.75 0 0 0 52.75 56V8A1.75 1.75 0 0 0 51 6.25Zm-1.75 48H44A1.75 1.75 0 0 0 42.25 56v4.25h-20.5V56A1.75 1.75 0 0 0 20 54.25h-5.25V9.75H20A1.75 1.75 0 0 0 21.75 8V3.75h20.5V8A1.75 1.75 0 0 0 44 9.75h5.25Z" opacity="1" data-original="#000000"></path></g></svg>