<?xml version="1.0" encoding="UTF-8"?>
<svg xmlns="http://www.w3.org/2000/svg" xmlns:xlink="http://www.w3.org/1999/xlink" width="512" height="512" x="0" y="0" viewBox="0 0 500 500" style="enable-background:new 0 0 512 512" xml:space="preserve" class="">
  <g>
    <path d="M87.035 474.999c-19.196 0-36.346-11.454-43.691-29.183-9.981-24.086 1.501-51.805 25.594-61.79C201.175 329.24 319.457 250.229 420.5 149.187a3.93 3.93 0 0 1 5.557 0l22.32 22.32a3.93 3.93 0 0 1 .586 4.812c-40.299 66.707-90.824 126.144-150.176 176.662-57.943 49.318-123.105 89.157-193.676 118.409a47.016 47.016 0 0 1-18.076 3.609zM423.274 157.52C322.111 257.97 203.931 336.607 71.946 391.288c-20.089 8.326-29.663 31.438-21.341 51.52 6.125 14.781 20.424 24.331 36.43 24.331a39.204 39.204 0 0 0 15.069-3.011c142.013-58.866 259.01-158.842 338.535-289.244z" opacity="1" data-original="#000000" class=""></path>
    <path d="M87.024 444.661a16.877 16.877 0 0 1-15.646-10.477 16.853 16.853 0 0 1 .019-12.998 16.747 16.747 0 0 1 9.147-9.116 16.768 16.768 0 0 1 6.458-1.289c6.87 0 13.018 4.103 15.663 10.451a16.846 16.846 0 0 1-.011 12.997 16.78 16.78 0 0 1-9.169 9.138 16.696 16.696 0 0 1-6.461 1.294zm-.021-26.019a8.982 8.982 0 0 0-3.456.693 8.951 8.951 0 0 0-4.894 4.873 9.048 9.048 0 0 0-.009 6.978 9.041 9.041 0 0 0 8.38 5.615 8.947 8.947 0 0 0 3.453-.694 8.987 8.987 0 0 0 4.918-4.896 9.03 9.03 0 0 0 .01-6.965 9.083 9.083 0 0 0-8.402-5.604zM217.401 152.749a3.908 3.908 0 0 1-1.502-.3L27.659 74.471a3.933 3.933 0 0 1-2.127-5.135 3.931 3.931 0 0 1 5.135-2.127l188.24 77.978a3.931 3.931 0 0 1 2.127 5.134 3.932 3.932 0 0 1-3.633 2.428z" opacity="1" data-original="#000000" class=""></path>
    <path d="M350.529 222.258a3.943 3.943 0 0 1-1.503-.299l-93.709-38.829-4.692 11.362a3.931 3.931 0 0 1-5.135 2.131L54.742 117.628C30.196 107.452 18.5 79.215 28.67 54.681l11.282-27.253a3.93 3.93 0 0 1 5.135-2.128l245.247 101.578a3.93 3.93 0 0 1 2.128 2.129c13.774 33.304 39.574 59.892 72.646 74.865a3.93 3.93 0 0 1 .943 6.56c-3.459 2.976-7.004 5.923-10.431 8.773l-2.573 2.141c-.719.6-1.612.912-2.518.912zm-97.342-48.195c.512 0 1.022.1 1.505.299l95.15 39.426.752-.626c1.886-1.568 3.806-3.165 5.724-4.777-31.746-15.938-56.595-42.287-70.484-74.863L45.71 34.067 35.932 57.69c-8.511 20.531 1.277 44.162 21.818 52.677l187.111 77.489 4.692-11.363a3.934 3.934 0 0 1 3.634-2.43zM465.423 247.646c-20.982 0-42.176-2.499-62.992-7.427a3.931 3.931 0 0 1-2.23-6.195c.957-1.266 1.917-2.525 2.878-3.784 2.207-2.893 4.489-5.885 6.658-8.883a3.92 3.92 0 0 1 4.036-1.535c18.923 4.197 38.2 6.325 57.297 6.325a3.93 3.93 0 0 1 3.631 5.435l-5.646 13.638a3.933 3.933 0 0 1-3.632 2.426zm-55.253-13.743c17.441 3.72 35.104 5.69 52.631 5.869l2.414-5.829c-16.898-.373-33.893-2.353-50.63-5.901a497.009 497.009 0 0 1-4.415 5.861z" opacity="1" data-original="#000000" class=""></path>
  </g>
</svg>
