<svg xmlns="http://www.w3.org/2000/svg" xmlns:xlink="http://www.w3.org/1999/xlink" width="512" height="512" x="0" y="0" viewBox="0 0 64 64" style="enable-background:new 0 0 512 512" xml:space="preserve" class=""><g><path d="M45 59c2.757 0 5-2.691 5-6s-2.243-6-5-6-5 2.691-5 6 2.243 6 5 6zm0-10c1.654 0 3 1.794 3 4s-1.346 4-3 4-3-1.794-3-4 1.346-4 3-4z" opacity="1" data-original="#000000" class=""></path><path d="M45 63c4.963 0 9-4.486 9-10 0-5.3-3.724-9.643-8.414-9.979l-8.567-14.635 10.9-26a1 1 0 0 0-1.161-1.356l-4 1a1 1 0 0 0-.621.465L32 19.812 21.863 2.5a1 1 0 0 0-.621-.465l-4-1a1 1 0 0 0-1.164 1.357l10.9 26-8.564 14.629C13.724 43.357 10 47.7 10 53c0 5.514 4.037 10 9 10s9-4.486 9-10a10.528 10.528 0 0 0-2.741-7.188l3.542-6.2 3.2-3.2 3.2 3.2 3.542 6.2A10.528 10.528 0 0 0 36 53c0 5.514 4.037 10 9 10zM43.65 3.868l1.656-.414-9.55 22.774-2.6-4.436zM27.292 38.293a.975.975 0 0 0-.161.211l-4 7a.992.992 0 0 0 .3 1.3l.01.006A8.455 8.455 0 0 1 26 53c0 4.411-3.141 8-7 8s-7-3.589-7-8 3.141-8 7-8a1 1 0 0 0 .863-.495l8.086-13.812 1.129 2.694a.991.991 0 0 0 .215.32L30.586 35zM40.868 45.5l-4-7a.975.975 0 0 0-.161-.211l-5.862-5.861L18.694 3.454l1.656.414 23.787 40.637A1 1 0 0 0 45 45c3.859 0 7 3.589 7 8s-3.141 8-7 8-7-3.589-7-8a8.458 8.458 0 0 1 2.523-6.147.536.536 0 0 0 .055-.038 1 1 0 0 0 .29-1.315z" opacity="1" data-original="#000000" class=""></path><path d="M19 47c-2.757 0-5 2.691-5 6s2.243 6 5 6 5-2.691 5-6-2.243-6-5-6zm0 10c-1.654 0-3-1.794-3-4s1.346-4 3-4 3 1.794 3 4-1.346 4-3 4zM31 28h2v2h-2z" opacity="1" data-original="#000000" class=""></path></g></svg>